<svg xmlns="http://www.w3.org/2000/svg" xmlns:xlink="http://www.w3.org/1999/xlink" viewBox="0 0 1047.08 407.38"><defs><style>.cls-1{fill:url(#Dégradé_sans_nom_6);}.cls-2{fill:url(#Dégradé_sans_nom_6-2);}.cls-3{fill:none;}.cls-4{fill:url(#Dégradé_sans_nom_6-3);}.cls-5{fill:url(#Dégradé_sans_nom_6-4);}.cls-6{fill:url(#Dégradé_sans_nom_6-5);}.cls-7{fill:url(#Dégradé_sans_nom_6-6);}.cls-8{fill:url(#Dégradé_sans_nom_6-7);}.cls-9{fill:url(#Dégradé_sans_nom_6-8);}.cls-10{fill:url(#Dégradé_sans_nom_6-9);}.cls-11{fill:#0b486b;}</style><linearGradient id="Dégradé_sans_nom_6" x1="165.29" y1="203.69" x2="541.16" y2="203.69" gradientUnits="userSpaceOnUse"><stop offset="0" stop-color="#0d486b"/><stop offset="0.3" stop-color="#0d4769"/><stop offset="1"/></linearGradient><linearGradient id="Dégradé_sans_nom_6-2" x1="0" y1="203.69" x2="375.87" y2="203.69" xlink:href="#Dégradé_sans_nom_6"/><linearGradient id="Dégradé_sans_nom_6-3" x1="289.12" y1="102.23" x2="499.6" y2="102.23" xlink:href="#Dégradé_sans_nom_6"/><linearGradient id="Dégradé_sans_nom_6-4" x1="79.89" y1="67.26" x2="236.41" y2="67.26" xlink:href="#Dégradé_sans_nom_6"/><linearGradient id="Dégradé_sans_nom_6-5" x1="17.91" y1="232.64" x2="204.45" y2="232.64" xlink:href="#Dégradé_sans_nom_6"/><linearGradient id="Dégradé_sans_nom_6-6" x1="13.47" y1="177.52" x2="198.76" y2="177.52" xlink:href="#Dégradé_sans_nom_6"/><linearGradient id="Dégradé_sans_nom_6-7" x1="49.18" y1="287.77" x2="212.65" y2="287.77" xlink:href="#Dégradé_sans_nom_6"/><linearGradient id="Dégradé_sans_nom_6-8" x1="85.98" y1="342.22" x2="249.95" y2="342.22" xlink:href="#Dégradé_sans_nom_6"/><linearGradient id="Dégradé_sans_nom_6-9" x1="32.93" y1="122.39" x2="208.8" y2="122.39" xlink:href="#Dégradé_sans_nom_6"/></defs><title>Logo</title><g id="Calque_2" data-name="Calque 2"><g id="Calque_1-2" data-name="Calque 1"><path class="cls-1" d="M500.48,213.38H427v34.21h68.12c-17.61,66.85-74.42,115.8-141.79,115.8-81.43,0-147.43-71.5-147.43-159.7S271.9,44,353.33,44c39.25,0,74.91,16.62,101.33,43.71v0L485.2,58.5C451.26,22.33,404.7,0,353.33,0c-103.85,0-188,91.2-188,203.69s84.19,203.69,188,203.69c100.85,0,183.16-86,187.83-194Z"/><path class="cls-2" d="M335.2,213.38H261.72v34.21h68.12c-17.61,66.85-74.43,115.8-141.8,115.8-81.42,0-147.43-71.5-147.43-159.7S106.62,44,188,44C227.29,44,263,60.61,289.38,87.7v0L319.91,58.5C286,22.33,239.42,0,188,0,84.19,0,0,91.2,0,203.69S84.19,407.38,188,407.38c100.86,0,183.16-86,187.83-194Z"/><path class="cls-3" d="M313.69,109.71l-20.06-.82.66-16.16q-2.64-2.62-5.18-5.35l5.61-5.3,1.69-41.25c-67.52,14.87-118.75,69.64-121.5,137C171.59,259.14,240.34,328,328.47,331.61s162.26-59.44,165.58-140.8a137.18,137.18,0,0,0-9.4-55.85,174.94,174.94,0,0,1-64,11.71C380.8,146.43,344,132.78,313.69,109.71Z"/><path class="cls-4" d="M450.53,83.63c6.63,8.06,10.59,21.78-29.59,18.6-39.12-3.09-74.86-16.83-101.2-44h0l-30.62,29.1c33.83,36.27,80.32,58.73,131.7,58.87,96.82.28,85.42-67.09,64.38-87.72Z"/><path class="cls-5" d="M103.27,54.88c-7.14,5.69-14.63,12-22.13,18.92a3.83,3.83,0,0,0,2.58,6.66H229.6a3.83,3.83,0,0,0,2.58-6.66c-7.5-6.89,9.58-13.23,2.44-18.92a3.81,3.81,0,0,0-2.38-.83H105.66A3.83,3.83,0,0,0,103.27,54.88Z"/><path class="cls-6" d="M18.08,224.41a134.91,134.91,0,0,0,7.75,19.31,3.82,3.82,0,0,0,3.44,2.13h163.8a3.84,3.84,0,0,0,3.44-2.12,135.55,135.55,0,0,0,7.76-19.32,3.83,3.83,0,0,0-3.66-5H21.75A3.84,3.84,0,0,0,18.08,224.41Z"/><path class="cls-7" d="M16.87,167.1a105.15,105.15,0,0,0-3.39,19.47,3.85,3.85,0,0,0,3.83,4.15H194.92a3.85,3.85,0,0,0,3.83-4.15,104.3,104.3,0,0,0-3.38-19.47,3.8,3.8,0,0,0-3.69-2.79H20.56A3.81,3.81,0,0,0,16.87,167.1Z"/><path class="cls-8" d="M50,280.81c5.38,6.63,11.09,13,16.95,19A3.86,3.86,0,0,0,69.75,301h134.7a3.85,3.85,0,0,0,2.75-1.16c5.87-6-.8-12.38,4.59-19a3.83,3.83,0,0,0-3-6.24H53A3.83,3.83,0,0,0,50,280.81Z"/><path class="cls-9" d="M87.47,336.55c10.14,7.83,19.31,14.23,26.36,18.93a3.86,3.86,0,0,0,2.11.63H233.43a3.77,3.77,0,0,0,2.11-.64c7-4.69,2.8-12.46,12.93-20.29a3.83,3.83,0,0,0-2.36-6.85L89.82,329.7A3.83,3.83,0,0,0,87.47,336.55Z"/><path class="cls-10" d="M46.78,110.66a209.11,209.11,0,0,0-13.29,19.1,3.84,3.84,0,0,0,3.28,5.83H205a3.84,3.84,0,0,0,3.28-5.83A210.28,210.28,0,0,0,195,110.66a3.82,3.82,0,0,0-3-1.48H49.81A3.83,3.83,0,0,0,46.78,110.66Z"/><path class="cls-11" d="M602.89,242.11a60.6,60.6,0,0,1,0-85.78,58.47,58.47,0,0,1,42.89-17.78,60.05,60.05,0,0,1,23.61,4.74l-7,16.7a41.93,41.93,0,0,0-16.62-3.41,42.73,42.73,0,0,0-42.56,42.64,42.58,42.58,0,0,0,42.56,42.56,44,44,0,0,0,11.14-1.41V208H637.63V189.83H675v62.92l-5.49,2.33a60.24,60.24,0,0,1-23.77,4.82A58.44,58.44,0,0,1,602.89,242.11Z"/><path class="cls-11" d="M691.16,258.74h-4.49V139.38h4.49Z"/><path class="cls-11" d="M786.83,139.38V258.74h-7.06L711.11,143.87V258.74h-4.49V139.38h7l68.74,115v-115Z"/><path class="cls-11" d="M829,139.38q24.6,0,42.14,17.54a59.61,59.61,0,0,1,0,84.28Q853.57,258.74,829,258.74h-27.6V139.38Zm0,114.87a55.21,55.21,0,0,0,55.19-55.19A55.19,55.19,0,0,0,829,143.87H805.87V254.25Z"/><path class="cls-11" d="M960.55,139.38v4.49H904v52.78H949.5v4.4H904v53.2h56.52v4.49h-61V139.38Z"/><path class="cls-11" d="M1042.09,258.74l-29.67-57.1H976.35v57.1h-4.49V139.38h42a31.14,31.14,0,0,1,23.11,52,30.09,30.09,0,0,1-19.61,10.14l29.75,57.27Zm-65.74-61.59h37.48a26.63,26.63,0,0,0,18.79-45.47,25.61,25.61,0,0,0-18.79-7.81H976.35Z"/></g></g></svg>